<?xml version="1.0" encoding="UTF-8" standalone="no"?>
<!-- Created with Inkscape (http://www.inkscape.org/) -->

<svg
   xmlns:dc="http://purl.org/dc/elements/1.1/"
   xmlns:cc="http://creativecommons.org/ns#"
   xmlns:rdf="http://www.w3.org/1999/02/22-rdf-syntax-ns#"
   xmlns:svg="http://www.w3.org/2000/svg"
   xmlns="http://www.w3.org/2000/svg"
   xmlns:sodipodi="http://sodipodi.sourceforge.net/DTD/sodipodi-0.dtd"
   xmlns:inkscape="http://www.inkscape.org/namespaces/inkscape"
   width="54"
   height="54"
   viewBox="0 0 14.2875 14.287501"
   version="1.1"
   id="svg2115"
   inkscape:version="0.92.4 (5da689c313, 2019-01-14)"
   sodipodi:docname="red-guard.svg">
  <defs
     id="defs2109" />
  <sodipodi:namedview
     id="base"
     pagecolor="#ffffff"
     bordercolor="#666666"
     borderopacity="1.0"
     inkscape:pageopacity="0.0"
     inkscape:pageshadow="2"
     inkscape:zoom="11.2"
     inkscape:cx="34.159926"
     inkscape:cy="30.064204"
     inkscape:document-units="mm"
     inkscape:current-layer="layer1"
     showgrid="false"
     units="px"
     inkscape:window-width="1920"
     inkscape:window-height="974"
     inkscape:window-x="-11"
     inkscape:window-y="-11"
     inkscape:window-maximized="1" />
  <metadata
     id="metadata2112">
    <rdf:RDF>
      <cc:Work
         rdf:about="">
        <dc:format>image/svg+xml</dc:format>
        <dc:type
           rdf:resource="http://purl.org/dc/dcmitype/StillImage" />
        <dc:title></dc:title>
      </cc:Work>
    </rdf:RDF>
  </metadata>
  <g
     inkscape:label="Layer 1"
     inkscape:groupmode="layer"
     id="layer1"
     transform="translate(0,-282.71247)">
    <g
       id="g2885"
       transform="matrix(0.1984375,0,0,0.1984375,-62.793056,238.30804)">
      <circle
         transform="translate(310.24697,217.55603)"
         id="path12855"
         style="display:inline;overflow:visible;visibility:visible;fill:#fedaa4;fill-opacity:1;stroke:#000000;stroke-width:2.66666675;stroke-linecap:round;stroke-linejoin:bevel;stroke-miterlimit:4;stroke-dasharray:none;stroke-opacity:1;marker:none;enable-background:accumulate"
         cx="42.5"
         cy="42.5"
         r="32.5" />
      <circle
         style="display:inline;overflow:visible;visibility:visible;fill:none;stroke:#cc0000;stroke-width:3.13402081;stroke-linecap:round;stroke-linejoin:bevel;stroke-miterlimit:4;stroke-dasharray:none;stroke-opacity:1;marker:none;enable-background:accumulate"
         id="path12857"
         transform="matrix(0.85087738,0,0,0.85087738,316.58468,223.89374)"
         cx="42.5"
         cy="42.5"
         r="32.5" />
      <path
         id="text12867"
         d="m 343.91884,271.61853 v -16.71875 l 1.09375,-1.09375 -2.34375,-1.09375 c 1.04166,-2.08331 2.0052,-3.98435 2.89063,-5.70313 0.8854,-1.71872 1.74478,-2.78642 2.57812,-3.20312 l -3.59375,-2.1875 c -1.04167,4.37503 -2.3698,8.22919 -3.98437,11.5625 -1.61459,3.33335 -3.6198,6.71876 -6.01563,10.15625 l 0.46875,0.46875 c 2.08333,-2.18749 4.27083,-5.10415 6.5625,-8.75 v 16.71875 c 0,1.77083 -0.0521,4.01041 -0.15625,6.71875 l 2.65625,-1.09375 c -0.10417,-2.08334 -0.15626,-4.01042 -0.15625,-5.78125 z m 12.5,-22.1875 v 5.625 h -10.9375 l 1.25,1.25 c 0.93749,-0.31248 1.97916,-0.46873 3.125,-0.46875 h 6.5625 v 17.96875 h -9.375 l 1.25,1.25 c 0.93749,-0.3125 1.97915,-0.46875 3.125,-0.46875 h 17.65625 l -2.65625,-2.8125 -2.03125,2.03125 h -5.625 v -17.96875 h 12.1875 l -2.8125,-3.125 -2.5,2.34375 h -6.875 v -10.15625 l 1.09375,-0.9375 -3.59375,-1.71875 c 0.10415,2.70836 0.15623,5.10419 0.15625,7.1875 z"
         style="font-style:italic;font-variant:normal;font-weight:normal;font-stretch:normal;font-size:40px;line-height:100%;font-family:'DejaVu Serif';-inkscape-font-specification:'DejaVu Serif Italic';text-align:end;writing-mode:lr-tb;text-anchor:end;fill:#cc0000;fill-opacity:1;stroke:#cc0000;stroke-width:1.33333337px;stroke-linecap:butt;stroke-linejoin:miter;stroke-opacity:1"
         inkscape:connector-curvature="0" />
    </g>
  </g>
</svg>
