<?xml version="1.0" encoding="UTF-8" standalone="no"?>
<!-- Created with Inkscape (http://www.inkscape.org/) -->

<svg
   xmlns:dc="http://purl.org/dc/elements/1.1/"
   xmlns:cc="http://creativecommons.org/ns#"
   xmlns:rdf="http://www.w3.org/1999/02/22-rdf-syntax-ns#"
   xmlns:svg="http://www.w3.org/2000/svg"
   xmlns="http://www.w3.org/2000/svg"
   xmlns:sodipodi="http://sodipodi.sourceforge.net/DTD/sodipodi-0.dtd"
   xmlns:inkscape="http://www.inkscape.org/namespaces/inkscape"
   width="54"
   height="54"
   viewBox="0 0 14.2875 14.287501"
   version="1.1"
   id="svg2115"
   inkscape:version="0.92.4 (5da689c313, 2019-01-14)"
   sodipodi:docname="red-xiang.svg">
  <defs
     id="defs2109" />
  <sodipodi:namedview
     id="base"
     pagecolor="#ffffff"
     bordercolor="#666666"
     borderopacity="1.0"
     inkscape:pageopacity="0.0"
     inkscape:pageshadow="2"
     inkscape:zoom="11.2"
     inkscape:cx="34.159926"
     inkscape:cy="30.064204"
     inkscape:document-units="mm"
     inkscape:current-layer="layer1"
     showgrid="false"
     units="px"
     inkscape:window-width="1920"
     inkscape:window-height="974"
     inkscape:window-x="-11"
     inkscape:window-y="-11"
     inkscape:window-maximized="1" />
  <metadata
     id="metadata2112">
    <rdf:RDF>
      <cc:Work
         rdf:about="">
        <dc:format>image/svg+xml</dc:format>
        <dc:type
           rdf:resource="http://purl.org/dc/dcmitype/StillImage" />
        <dc:title></dc:title>
      </cc:Work>
    </rdf:RDF>
  </metadata>
  <g
     inkscape:label="Layer 1"
     inkscape:groupmode="layer"
     id="layer1"
     transform="translate(0,-282.71247)">
    <g
       id="g5003"
       transform="matrix(0.26458333,0,0,0.26458333,-1.9121015,328.43423)">
      <circle
         transform="matrix(0.75,0,0,0.75,2.5839838,-177.55664)"
         id="path12855-19"
         style="display:inline;overflow:visible;visibility:visible;fill:#fedaa4;fill-opacity:1;stroke:#000000;stroke-width:2.66666675;stroke-linecap:round;stroke-linejoin:bevel;stroke-miterlimit:4;stroke-dasharray:none;stroke-opacity:1;marker:none;enable-background:accumulate"
         cx="42.5"
         cy="42.5"
         r="32.5" />
      <circle
         style="display:inline;overflow:visible;visibility:visible;fill:none;stroke:#cc0000;stroke-width:3.13402081;stroke-linecap:round;stroke-linejoin:bevel;stroke-miterlimit:4;stroke-dasharray:none;stroke-opacity:1;marker:none;enable-background:accumulate"
         id="path12857-8"
         transform="matrix(0.63815803,0,0,0.63815803,7.3372673,-172.80336)"
         cx="42.5"
         cy="42.5"
         r="32.5" />
      <path
         id="text12867-2"
         d="m 36.791015,-143.12695 h 7.5 v 6.67968 h -7.5 z m -1.640625,10.19531 1.640625,-0.70313 v -2.22656 h 7.5 v 2.69531 l 1.757813,-0.82031 c -0.07815,-1.875 -0.117214,-9.02343 -0.117188,-21.44531 l 1.054688,-0.82031 -1.640625,-1.64063 -1.289063,1.28906 h -7.148437 l -1.757813,-1.17187 c 0.07811,1.79689 0.117172,5.85939 0.117188,12.1875 -1.6e-5,6.32812 -0.03907,10.54687 -0.117188,12.65625 z m 1.640625,-23.08594 h 7.5 v 5.97656 h -7.5 z m 0,6.5625 h 7.5 v 5.74219 h -7.5 z m -9.609375,-2.69531 h -5.859375 l 0.9375,0.9375 c 0.703121,-0.23436 1.484371,-0.35155 2.34375,-0.35156 h 2.34375 c -0.781257,3.90626 -2.89063,8.24219 -6.328125,13.00781 l 0.351563,0.35156 c 2.57812,-2.42187 4.648431,-5.27343 6.210937,-8.55469 -7e-6,4.45314 -0.03907,9.10157 -0.117187,13.94532 l 1.757812,-0.82032 c -0.07813,-1.95312 -0.117196,-6.83593 -0.117187,-14.64843 1.093739,0.70314 1.855457,1.69923 2.285156,2.98828 0.429676,1.28907 0.898425,1.48438 1.40625,0.58594 0.507799,-0.89843 0.429674,-1.64062 -0.234375,-2.22656 -0.664075,-0.58593 -1.816418,-1.1914 -3.457031,-1.81641 v -2.8125 h 5.976562 l -1.992187,-1.875 -1.40625,1.28906 h -2.578125 v -5.74219 l 1.054687,-0.82031 -2.695312,-1.05469 c 0.07812,1.95315 0.11718,4.49221 0.117187,7.61719 z"
         style="font-style:italic;font-variant:normal;font-weight:normal;font-stretch:normal;font-size:40px;line-height:100%;font-family:'DejaVu Serif';-inkscape-font-specification:'DejaVu Serif Italic';text-align:end;writing-mode:lr-tb;text-anchor:end;fill:#cc0000;fill-opacity:1;stroke:#cc0000;stroke-width:1px;stroke-linecap:butt;stroke-linejoin:miter;stroke-opacity:1"
         inkscape:connector-curvature="0" />
    </g>
  </g>
</svg>
