<?xml version="1.0" encoding="UTF-8" standalone="no"?>
<!-- Created with Inkscape (http://www.inkscape.org/) -->

<svg
   xmlns:dc="http://purl.org/dc/elements/1.1/"
   xmlns:cc="http://creativecommons.org/ns#"
   xmlns:rdf="http://www.w3.org/1999/02/22-rdf-syntax-ns#"
   xmlns:svg="http://www.w3.org/2000/svg"
   xmlns="http://www.w3.org/2000/svg"
   xmlns:sodipodi="http://sodipodi.sourceforge.net/DTD/sodipodi-0.dtd"
   xmlns:inkscape="http://www.inkscape.org/namespaces/inkscape"
   width="54"
   height="54"
   viewBox="0 0 14.2875 14.287501"
   version="1.1"
   id="svg2115"
   inkscape:version="0.92.4 (5da689c313, 2019-01-14)"
   sodipodi:docname="red-knight.svg">
  <defs
     id="defs2109" />
  <sodipodi:namedview
     id="base"
     pagecolor="#ffffff"
     bordercolor="#666666"
     borderopacity="1.0"
     inkscape:pageopacity="0.0"
     inkscape:pageshadow="2"
     inkscape:zoom="11.2"
     inkscape:cx="34.159926"
     inkscape:cy="30.064204"
     inkscape:document-units="mm"
     inkscape:current-layer="layer1"
     showgrid="false"
     units="px"
     inkscape:window-width="1920"
     inkscape:window-height="974"
     inkscape:window-x="-11"
     inkscape:window-y="-11"
     inkscape:window-maximized="1" />
  <metadata
     id="metadata2112">
    <rdf:RDF>
      <cc:Work
         rdf:about="">
        <dc:format>image/svg+xml</dc:format>
        <dc:type
           rdf:resource="http://purl.org/dc/dcmitype/StillImage" />
        <dc:title></dc:title>
      </cc:Work>
    </rdf:RDF>
  </metadata>
  <g
     inkscape:label="Layer 1"
     inkscape:groupmode="layer"
     id="layer1"
     transform="translate(0,-282.71247)">
    <g
       transform="matrix(0.26458333,0,0,0.26458333,-106.66348,327.09241)"
       id="g4973">
      <circle
         transform="matrix(0.75,0,0,0.75,398.58398,-172.30664)"
         id="path12855-2"
         style="display:inline;overflow:visible;visibility:visible;fill:#fedaa4;fill-opacity:1;stroke:#000000;stroke-width:2.66666675;stroke-linecap:round;stroke-linejoin:bevel;stroke-miterlimit:4;stroke-dasharray:none;stroke-opacity:1;marker:none;enable-background:accumulate"
         cx="42.5"
         cy="42.5"
         r="32.5" />
      <circle
         style="display:inline;overflow:visible;visibility:visible;fill:none;stroke:#cc0000;stroke-width:3.13402081;stroke-linecap:round;stroke-linejoin:bevel;stroke-miterlimit:4;stroke-dasharray:none;stroke-opacity:1;marker:none;enable-background:accumulate"
         id="path12857-88"
         transform="matrix(0.63815803,0,0,0.63815803,403.33727,-167.55336)"
         cx="42.5"
         cy="42.5"
         r="32.5" />
      <path
         id="text12867-25"
         d="m 426.42773,-148.81054 v 8.55468 c -10e-6,0.93751 -0.0391,2.18751 -0.11718,3.75 l 1.64062,-0.35156 v -0.58594 l 12.65625,-0.23437 c -0.62503,4.53125 -1.07424,7.10937 -1.34766,7.73437 -0.27346,0.625 -0.68362,0.91797 -1.23046,0.87891 -0.5469,-0.0391 -1.87503,-0.29297 -3.98438,-0.76172 v 0.46875 c 1.24998,0.46874 2.07029,0.85937 2.46094,1.17188 0.3906,0.31249 0.7031,0.8203 0.9375,1.52343 1.3281,-0.3125 2.28513,-0.89844 2.87109,-1.75781 0.58591,-0.85938 1.19138,-3.75 1.81641,-8.67187 l 1.05469,-0.70313 -1.875,-1.64062 -1.05469,1.17187 -5.74219,0.11719 v -4.10156 h 6.79688 l -2.10938,-1.99219 -1.40625,1.40625 h -3.28125 v -3.98438 h 6.91406 l -1.99218,-1.99218 -1.40625,1.40625 h -3.51563 v -3.86719 h 7.61719 l -2.10938,-2.22656 -1.64062,1.64062 h -10.3125 l -1.75781,-0.9375 c 0.0781,1.64064 0.11717,2.96877 0.11718,3.98438 z m -0.9375,13.82812 c -0.78126,1.95313 -1.50391,3.22265 -2.16797,3.80859 -0.66406,0.58594 -0.85938,1.01563 -0.58594,1.28906 0.27344,0.27344 0.72265,0.35157 1.34766,0.23438 0.62499,-0.11719 1.07421,-0.56641 1.34766,-1.34765 0.27342,-0.78126 0.44921,-2.07032 0.52734,-3.86719 z m 2.46094,0.11719 c 0.54686,1.95313 0.8203,3.37891 0.82031,4.27734 -10e-6,0.89844 0.27342,1.21093 0.82032,0.9375 0.54686,-0.27344 0.85935,-0.74219 0.9375,-1.40625 0.0781,-0.66406 -0.62502,-2.01172 -2.10938,-4.04297 z m 3.39844,-0.46875 c 0.93748,1.875 1.46482,3.24219 1.58203,4.10156 0.11717,0.85937 0.4492,1.07422 0.99609,0.64453 0.54686,-0.42968 0.74217,-1.03516 0.58594,-1.8164 -0.15627,-0.78126 -1.13283,-1.83594 -2.92969,-3.16407 z m 3.98437,-0.70313 c 0.93748,1.79688 1.50389,3.14454 1.69922,4.04297 0.19529,0.89844 0.54685,1.05469 1.05469,0.46875 0.50779,-0.58594 0.62498,-1.19141 0.35156,-1.8164 -0.27346,-0.625 -1.19143,-1.60156 -2.7539,-2.92969 z m -7.38281,-15.23437 h 5.03906 v 3.86719 h -5.03906 z m 0,4.45312 h 5.03906 v 3.98438 h -5.03906 z m 0,4.57032 h 5.03906 v 4.10156 l -5.03906,0.11719 z m -6.21094,10.66406 v -13.24219 l 0.9375,-0.46875 -1.28906,-0.9375 c 1.32812,-2.81248 2.22656,-4.68748 2.69531,-5.625 l 1.17188,-0.70312 -2.57813,-1.64063 c -0.625,2.26565 -1.48438,4.70705 -2.57812,7.32422 -1.09376,2.6172 -2.38282,5.01954 -3.86719,7.20703 l 0.35156,0.23438 c 1.48437,-1.64062 2.69531,-3.20312 3.63282,-4.6875 v 11.13281 c -10e-6,1.71874 -0.0391,3.74999 -0.11719,6.09375 l 1.75781,-0.9375 c -0.0781,-1.25 -0.11719,-2.50001 -0.11719,-3.75 z"
         style="font-style:italic;font-variant:normal;font-weight:normal;font-stretch:normal;font-size:40px;line-height:100%;font-family:'DejaVu Serif';-inkscape-font-specification:'DejaVu Serif Italic';text-align:end;writing-mode:lr-tb;text-anchor:end;fill:#cc0000;fill-opacity:1;stroke:#cc0000;stroke-width:1px;stroke-linecap:butt;stroke-linejoin:miter;stroke-opacity:1"
         inkscape:connector-curvature="0" />
    </g>
  </g>
</svg>
