<?xml version="1.0" encoding="UTF-8" standalone="no"?>
<!-- Created with Inkscape (http://www.inkscape.org/) -->

<svg
   xmlns:dc="http://purl.org/dc/elements/1.1/"
   xmlns:cc="http://creativecommons.org/ns#"
   xmlns:rdf="http://www.w3.org/1999/02/22-rdf-syntax-ns#"
   xmlns:svg="http://www.w3.org/2000/svg"
   xmlns="http://www.w3.org/2000/svg"
   xmlns:sodipodi="http://sodipodi.sourceforge.net/DTD/sodipodi-0.dtd"
   xmlns:inkscape="http://www.inkscape.org/namespaces/inkscape"
   width="54"
   height="54"
   viewBox="0 0 14.2875 14.287501"
   version="1.1"
   id="svg2115"
   inkscape:version="0.92.4 (5da689c313, 2019-01-14)"
   sodipodi:docname="red-gen.svg">
  <defs
     id="defs2109" />
  <sodipodi:namedview
     id="base"
     pagecolor="#ffffff"
     bordercolor="#666666"
     borderopacity="1.0"
     inkscape:pageopacity="0.0"
     inkscape:pageshadow="2"
     inkscape:zoom="11.2"
     inkscape:cx="34.159926"
     inkscape:cy="30.064204"
     inkscape:document-units="mm"
     inkscape:current-layer="layer1"
     showgrid="false"
     units="px"
     inkscape:window-width="1920"
     inkscape:window-height="974"
     inkscape:window-x="-11"
     inkscape:window-y="-11"
     inkscape:window-maximized="1" />
  <metadata
     id="metadata2112">
    <rdf:RDF>
      <cc:Work
         rdf:about="">
        <dc:format>image/svg+xml</dc:format>
        <dc:type
           rdf:resource="http://purl.org/dc/dcmitype/StillImage" />
        <dc:title></dc:title>
      </cc:Work>
    </rdf:RDF>
  </metadata>
  <g
     inkscape:label="Layer 1"
     inkscape:groupmode="layer"
     id="layer1"
     transform="translate(0,-282.71247)">
    <g
       id="g5014"
       transform="matrix(0.26458333,0,0,0.26458333,7.5184044,311.71823)">
      <circle
         transform="matrix(0.75,0,0,0.75,-33.416016,-114.55664)"
         id="path12855-96"
         style="display:inline;overflow:visible;visibility:visible;fill:#fedaa4;fill-opacity:1;stroke:#000000;stroke-width:2.66666675;stroke-linecap:round;stroke-linejoin:bevel;stroke-miterlimit:4;stroke-dasharray:none;stroke-opacity:1;marker:none;enable-background:accumulate"
         cx="42.5"
         cy="42.5"
         r="32.5" />
      <circle
         style="display:inline;overflow:visible;visibility:visible;fill:none;stroke:#cc0000;stroke-width:3.13402081;stroke-linecap:round;stroke-linejoin:bevel;stroke-miterlimit:4;stroke-dasharray:none;stroke-opacity:1;marker:none;enable-background:accumulate"
         id="path12857-9"
         transform="matrix(0.63815803,0,0,0.63815803,-28.662735,-109.80336)"
         cx="42.5"
         cy="42.5"
         r="32.5" />
      <path
         id="text12867-5"
         d="m 5.1855465,-89.126953 h 4.453125 v 11.953125 c -0.078151,0.703129 -0.4687755,1.03516 -1.171875,0.996093 -0.703149,-0.03906 -1.4453362,-0.136714 -2.2265625,-0.292968 v 0.46875 c 1.640601,0.546878 2.5780995,1.328127 2.8125,2.34375 1.484348,-0.781248 2.187472,-1.874997 2.109375,-3.28125 v -11.71875 l 0.9375,-0.703125 -1.757812,-1.523438 -1.054688,1.171875 H 5.1855465 v -4.6875 l 1.0546875,-0.9375 -2.6953125,-1.171875 c 0.078105,1.250023 0.1171672,3.515646 0.1171875,6.796875 h -4.1015625 l -1.7578125,-0.9375 c 0.078113,1.796892 0.1171725,4.394545 0.1171875,7.792969 -1.5e-5,3.398445 -0.039075,6.308598 -0.1171875,8.730469 l 1.640625,-0.9375 v -14.0625 h 4.21875 v 14.648437 c -2.03e-5,1.562501 -0.039083,3.437499 -0.1171875,5.625 l 1.7578125,-0.820312 c -0.078146,-1.406251 -0.1172093,-2.773437 -0.1171875,-4.101563 z m -17.2265625,-1.40625 h 5.859375 v 5.390625 h -5.859375 z m 0,10.546875 h 6.328125 v 6.679687 h -6.328125 z m -1.640625,9.726562 1.640625,-0.703125 v -1.757812 h 6.328125 v 1.757812 l 1.640625,-0.703125 c -0.078135,-0.937499 -0.1172025,-3.554684 -0.1171875,-7.851562 l 0.703125,-0.585938 -1.40625,-1.523437 -1.0546875,1.054687 h -6.09375 v -3.984375 h 5.859375 v 1.40625 l 1.640625,-0.820312 c -0.078135,-1.093737 -0.1172025,-3.124986 -0.1171875,-6.09375 l 0.8203125,-0.585938 -1.5234375,-1.523437 -1.0546875,1.054687 h -3.632812 l 1.8749995,-3.046875 1.0546875,-0.820312 -2.4609375,-1.40625 c -7.5e-6,1.328148 -0.4296895,3.085959 -1.2890625,5.273437 h -1.171875 l -1.640625,-0.820312 c 0.07812,1.562518 0.117188,5.000015 0.117188,10.3125 0,5.312504 -0.03908,9.101562 -0.117188,11.367187 z"
         style="font-style:italic;font-variant:normal;font-weight:normal;font-stretch:normal;font-size:40px;line-height:100%;font-family:'DejaVu Serif';-inkscape-font-specification:'DejaVu Serif Italic';text-align:end;writing-mode:lr-tb;text-anchor:end;fill:#cc0000;fill-opacity:1;stroke:#cc0000;stroke-width:1px;stroke-linecap:butt;stroke-linejoin:miter;stroke-opacity:1"
         inkscape:connector-curvature="0" />
    </g>
  </g>
</svg>
