<?xml version="1.0" encoding="UTF-8" standalone="no"?>
<!-- Created with Inkscape (http://www.inkscape.org/) -->

<svg
   xmlns:dc="http://purl.org/dc/elements/1.1/"
   xmlns:cc="http://creativecommons.org/ns#"
   xmlns:rdf="http://www.w3.org/1999/02/22-rdf-syntax-ns#"
   xmlns:svg="http://www.w3.org/2000/svg"
   xmlns="http://www.w3.org/2000/svg"
   xmlns:sodipodi="http://sodipodi.sourceforge.net/DTD/sodipodi-0.dtd"
   xmlns:inkscape="http://www.inkscape.org/namespaces/inkscape"
   width="54"
   height="54"
   viewBox="0 0 14.2875 14.287501"
   version="1.1"
   id="svg2115"
   inkscape:version="0.92.4 (5da689c313, 2019-01-14)"
   sodipodi:docname="red-char.svg">
  <defs
     id="defs2109" />
  <sodipodi:namedview
     id="base"
     pagecolor="#ffffff"
     bordercolor="#666666"
     borderopacity="1.0"
     inkscape:pageopacity="0.0"
     inkscape:pageshadow="2"
     inkscape:zoom="11.2"
     inkscape:cx="34.159926"
     inkscape:cy="30.064204"
     inkscape:document-units="mm"
     inkscape:current-layer="layer1"
     showgrid="false"
     units="px"
     inkscape:window-width="1920"
     inkscape:window-height="974"
     inkscape:window-x="-11"
     inkscape:window-y="-11"
     inkscape:window-maximized="1" />
  <metadata
     id="metadata2112">
    <rdf:RDF>
      <cc:Work
         rdf:about="">
        <dc:format>image/svg+xml</dc:format>
        <dc:type
           rdf:resource="http://purl.org/dc/dcmitype/StillImage" />
        <dc:title></dc:title>
      </cc:Work>
    </rdf:RDF>
  </metadata>
  <g
     inkscape:label="Layer 1"
     inkscape:groupmode="layer"
     id="layer1"
     transform="translate(0,-282.71247)">
    <g
       id="g4983"
       transform="matrix(0.26458333,0,0,0.26458333,-66.300344,328.4106)">
      <circle
         transform="matrix(0.75,0,0,0.75,245.58398,-177.55664)"
         id="path12855-9"
         style="display:inline;overflow:visible;visibility:visible;fill:#fedaa4;fill-opacity:1;stroke:#000000;stroke-width:2.66666675;stroke-linecap:round;stroke-linejoin:bevel;stroke-miterlimit:4;stroke-dasharray:none;stroke-opacity:1;marker:none;enable-background:accumulate"
         cx="42.5"
         cy="42.5"
         r="32.5" />
      <circle
         style="display:inline;overflow:visible;visibility:visible;fill:none;stroke:#cc0000;stroke-width:3.13402081;stroke-linecap:round;stroke-linejoin:bevel;stroke-miterlimit:4;stroke-dasharray:none;stroke-opacity:1;marker:none;enable-background:accumulate"
         id="path12857-4"
         transform="matrix(0.63815803,0,0,0.63815803,250.33727,-172.80336)"
         cx="42.5"
         cy="42.5"
         r="32.5" />
      <path
         id="text12867-3"
         d="m 274.42382,-150.31054 h 4.92188 v 3.51562 h -4.92188 z m 6.44532,0 h 5.27343 v 3.51562 h -5.27343 z m -6.44532,4.10156 h 4.92188 v 3.63281 h -4.92188 z m 6.44532,0 h 5.27343 v 3.63281 h -5.27343 z m -1.75782,14.41406 1.875,-0.82031 c -0.0781,-1.71875 -0.1172,-3.00782 -0.11718,-3.86719 v -1.28906 h 9.25781 l -2.10938,-2.22656 -1.52343,1.64062 h -5.625 v -3.63281 h 5.27343 v 1.05469 l 1.64063,-0.82032 c -0.0781,-1.09374 -0.11721,-2.10936 -0.11719,-3.04687 v -5.03906 l 0.9375,-0.82032 -1.875,-1.40625 -0.82031,1.17188 h -5.03906 v -3.28125 h 8.32031 l -2.10938,-2.10938 -1.52343,1.52344 h -4.6875 v -2.57812 l 1.05468,-0.9375 -2.69531,-1.17188 c 0.0781,0.8594 0.11717,1.75784 0.11719,2.69531 v 1.99219 h -7.73438 l 0.9375,0.9375 c 0.70312,-0.23436 1.48437,-0.35155 2.34375,-0.35156 h 4.45313 v 3.28125 h -4.80469 l -1.75781,-0.82031 c 0.0781,1.64064 0.11718,3.45704 0.11719,5.44921 -1e-5,1.9922 -0.0391,3.96485 -0.11719,5.91797 l 1.64062,-0.82031 v -0.82031 h 4.92188 v 3.63281 h -9.02344 l 0.9375,0.9375 c 0.70312,-0.23437 1.48437,-0.35156 2.34375,-0.35156 h 5.74219 v 1.875 c -2e-5,0.70312 -0.0781,2.07031 -0.23438,4.10156 z m -9.72656,-18.04687 0.9375,-0.58594 -1.40625,-0.82031 c 0.625,-1.32811 1.52343,-3.16405 2.69531,-5.50782 l 1.28907,-0.82031 -2.57813,-1.64062 c -0.70312,2.42189 -1.64062,4.94142 -2.8125,7.55859 -1.17187,2.6172 -2.57812,5.0586 -4.21875,7.32422 l 0.35156,0.35156 c 1.40625,-1.48437 2.8125,-3.28124 4.21875,-5.39062 v 12.42187 c 0,1.71875 -0.0391,3.39843 -0.11718,5.03906 l 1.75781,-0.9375 c -0.0781,-1.40625 -0.11719,-3.04687 -0.11719,-4.92187 z"
         style="font-style:italic;font-variant:normal;font-weight:normal;font-stretch:normal;font-size:40px;line-height:100%;font-family:'DejaVu Serif';-inkscape-font-specification:'DejaVu Serif Italic';text-align:end;writing-mode:lr-tb;text-anchor:end;fill:#cc0000;fill-opacity:1;stroke:#cc0000;stroke-width:1px;stroke-linecap:butt;stroke-linejoin:miter;stroke-opacity:1"
         inkscape:connector-curvature="0" />
    </g>
  </g>
</svg>
