<?xml version="1.0" encoding="UTF-8" standalone="no"?>
<!-- Created with Inkscape (http://www.inkscape.org/) -->

<svg
   xmlns:dc="http://purl.org/dc/elements/1.1/"
   xmlns:cc="http://creativecommons.org/ns#"
   xmlns:rdf="http://www.w3.org/1999/02/22-rdf-syntax-ns#"
   xmlns:svg="http://www.w3.org/2000/svg"
   xmlns="http://www.w3.org/2000/svg"
   xmlns:sodipodi="http://sodipodi.sourceforge.net/DTD/sodipodi-0.dtd"
   xmlns:inkscape="http://www.inkscape.org/namespaces/inkscape"
   width="54"
   height="54"
   viewBox="0 0 14.2875 14.287501"
   version="1.1"
   id="svg2115"
   inkscape:version="0.92.4 (5da689c313, 2019-01-14)"
   sodipodi:docname="red-cannon.svg">
  <defs
     id="defs2109" />
  <sodipodi:namedview
     id="base"
     pagecolor="#ffffff"
     bordercolor="#666666"
     borderopacity="1.0"
     inkscape:pageopacity="0.0"
     inkscape:pageshadow="2"
     inkscape:zoom="11.2"
     inkscape:cx="34.159926"
     inkscape:cy="30.064204"
     inkscape:document-units="mm"
     inkscape:current-layer="layer1"
     showgrid="false"
     units="px"
     inkscape:window-width="1920"
     inkscape:window-height="974"
     inkscape:window-x="-11"
     inkscape:window-y="-11"
     inkscape:window-maximized="1" />
  <metadata
     id="metadata2112">
    <rdf:RDF>
      <cc:Work
         rdf:about="">
        <dc:format>image/svg+xml</dc:format>
        <dc:type
           rdf:resource="http://purl.org/dc/dcmitype/StillImage" />
        <dc:title></dc:title>
      </cc:Work>
    </rdf:RDF>
  </metadata>
  <g
     inkscape:label="Layer 1"
     inkscape:groupmode="layer"
     id="layer1"
     transform="translate(0,-282.71247)">
    <g
       id="g4993"
       transform="matrix(0.26458333,0,0,0.26458333,-30.510724,328.38697)">
      <circle
         transform="matrix(0.75,0,0,0.75,110.58398,-177.55664)"
         id="path12855-1"
         style="display:inline;overflow:visible;visibility:visible;fill:#fedaa4;fill-opacity:1;stroke:#000000;stroke-width:2.66666675;stroke-linecap:round;stroke-linejoin:bevel;stroke-miterlimit:4;stroke-dasharray:none;stroke-opacity:1;marker:none;enable-background:accumulate"
         cx="42.5"
         cy="42.5"
         r="32.5" />
      <circle
         style="display:inline;overflow:visible;visibility:visible;fill:none;stroke:#cc0000;stroke-width:3.13402081;stroke-linecap:round;stroke-linejoin:bevel;stroke-miterlimit:4;stroke-dasharray:none;stroke-opacity:1;marker:none;enable-background:accumulate"
         id="path12857-3"
         transform="matrix(0.63815803,0,0,0.63815803,115.33727,-172.80336)"
         cx="42.5"
         cy="42.5"
         r="32.5" />
      <path
         id="text12867-8"
         d="m 145.97461,-142.03711 v 0.46875 c 2.5781,0.54688 3.8281,1.40625 3.75,2.57813 0.7031,-0.15625 1.42576,-0.56641 2.16797,-1.23047 0.74216,-0.66406 1.15232,-1.81641 1.23047,-3.45703 0.0781,-1.64062 0.15622,-5.15624 0.23437,-10.54688 l 0.9375,-0.82031 -2.10937,-1.64062 -0.82032,1.28906 h -7.85156 c 0.54686,-1.56248 0.93748,-2.53904 1.17188,-2.92969 l 0.82031,-0.58594 -2.69531,-1.28906 c -0.15627,1.40627 -0.62502,3.33986 -1.40625,5.80078 -0.78127,2.46095 -1.91408,4.98048 -3.39844,7.5586 l 0.35156,0.23437 c 0.85937,-0.85936 1.7578,-2.03124 2.69531,-3.51562 v 14.0625 c -1e-5,1.56249 0.8203,2.34374 2.46094,2.34375 h 9.375 c 1.6406,-1e-5 2.73435,-0.58595 3.28125,-1.75782 -0.5469,-0.15625 -0.93753,-0.52734 -1.17187,-1.11328 -0.23441,-0.58594 -0.31253,-1.69922 -0.23438,-3.33984 h -0.58594 c -0.0781,1.17187 -0.19533,2.26562 -0.35156,3.28125 -0.15628,1.01562 -0.5469,1.52343 -1.17187,1.52344 h -8.67188 c -0.85939,-1e-5 -1.32814,-0.46875 -1.40625,-1.40625 v -7.03125 h 4.45313 v 0.82031 l 1.64062,-0.70313 v -5.74218 l 1.05469,-0.70313 -1.99219,-1.75781 -1.05469,1.28906 h -3.98437 l -1.17188,-0.70312 c 0.70311,-1.32812 1.28905,-2.57811 1.75782,-3.75 h 8.32031 c -2e-5,7.10938 -0.0977,11.03516 -0.29297,11.77734 -0.19533,0.74219 -0.60549,1.13282 -1.23047,1.17187 -0.62502,0.0391 -1.99221,-0.0195 -4.10156,-0.17578 z m -3.39844,-7.73437 h 4.45313 v 5.625 h -4.45313 z m -8.78906,-10.19531 c 0.0781,4.45314 0.11718,8.33985 0.11719,11.66015 -1e-5,3.32032 -0.33204,6.11329 -0.9961,8.37891 -0.66406,2.26562 -2.01172,4.57031 -4.04297,6.91406 l 0.23438,0.35156 c 3.28124,-2.65625 5.31249,-5.85937 6.09375,-9.60937 1.40624,1.40625 2.32421,2.59765 2.75391,3.57421 0.42967,0.97657 0.78123,1.50391 1.05468,1.58204 0.27343,0.0781 0.5078,-0.29297 0.70313,-1.11329 0.1953,-0.82031 -0.0391,-1.58202 -0.70313,-2.28515 -0.66407,-0.70312 -1.89454,-1.48437 -3.6914,-2.34375 0.15624,-2.57812 0.23436,-4.72655 0.23437,-6.44531 1.09374,-1.01561 1.97265,-1.85546 2.63672,-2.51954 0.66405,-0.66404 1.26952,-1.0742 1.81641,-1.23046 l -1.64063,-1.99219 c -0.46876,1.32814 -1.40626,2.9297 -2.8125,4.80469 v -7.61719 l 0.9375,-0.9375 z m -2.34375,7.73437 h -0.46875 c -0.3125,1.79689 -0.76172,3.10548 -1.34766,3.92578 -0.58594,0.82033 -0.70312,1.34767 -0.35156,1.58203 0.35156,0.23439 0.80078,0.25392 1.34766,0.0586 0.54687,-0.1953 0.89843,-0.68358 1.05468,-1.46484 0.15625,-0.78124 0.0781,-2.14842 -0.23437,-4.10156 v 0 z"
         style="font-style:italic;font-variant:normal;font-weight:normal;font-stretch:normal;font-size:40px;line-height:100%;font-family:'DejaVu Serif';-inkscape-font-specification:'DejaVu Serif Italic';text-align:end;writing-mode:lr-tb;text-anchor:end;fill:#cc0000;fill-opacity:1;stroke:#cc0000;stroke-width:1px;stroke-linecap:butt;stroke-linejoin:miter;stroke-opacity:1"
         inkscape:connector-curvature="0" />
    </g>
  </g>
</svg>
